<svg xmlns="http://www.w3.org/2000/svg" xmlns:xlink="http://www.w3.org/1999/xlink" width="70" height="70" viewBox="0 0 70 70">
  <defs>
    <clipPath id="clip-path">
      <rect width="70" height="70" fill="none"/>
    </clipPath>
  </defs>
  <g id="logo" clip-path="url(#clip-path)">
    <g id="Group_10" data-name="Group 10">
      <g id="Group_1" data-name="Group 1" transform="translate(29.313 0.583)">
        <path id="Path_3" data-name="Path 3" d="M223.563,33.125a6.563,6.563,0,1,1,6.563-6.562A6.57,6.57,0,0,1,223.563,33.125Zm0-10.208a3.646,3.646,0,1,0,3.646,3.646A3.65,3.65,0,0,0,223.563,22.917Z" transform="translate(-217 -20)" fill="#fff"/>
      </g>
      <g id="Group_2" data-name="Group 2" transform="translate(56.875 29.167)">
        <path id="Path_4" data-name="Path 4" d="M412.563,229.125a6.563,6.563,0,1,1,6.563-6.562A6.57,6.57,0,0,1,412.563,229.125Zm0-10.208a3.646,3.646,0,1,0,3.646,3.646A3.65,3.65,0,0,0,412.563,218.917Z" transform="translate(-406 -216)" fill="#fff"/>
      </g>
      <g id="Group_3" data-name="Group 3" transform="translate(29.167 56)">
        <path id="Path_5" data-name="Path 5" d="M222.563,413.125a6.563,6.563,0,1,1,6.563-6.562A6.57,6.57,0,0,1,222.563,413.125Zm0-10.208a3.646,3.646,0,1,0,3.646,3.646A3.65,3.65,0,0,0,222.563,402.917Z" transform="translate(-216 -400)" fill="#fff"/>
      </g>
      <g id="Group_4" data-name="Group 4" transform="translate(0 28.292)">
        <path id="Path_6" data-name="Path 6" d="M22.563,223.125a6.563,6.563,0,1,1,6.563-6.562A6.57,6.57,0,0,1,22.563,223.125Zm0-10.208a3.646,3.646,0,1,0,3.646,3.646A3.65,3.65,0,0,0,22.563,212.917Z" transform="translate(-16 -210)" fill="#fff"/>
      </g>
      <g id="Group_5" data-name="Group 5">
        <path id="Path_7" data-name="Path 7" d="M51,86a34.805,34.805,0,0,1-19.829-6.155,1.458,1.458,0,1,1,1.654-2.4A32.088,32.088,0,1,0,66.708,23.018a1.458,1.458,0,0,1,1.43-2.542A35,35,0,0,1,51,86ZM26.486,75.352a1.454,1.454,0,0,1-1.065-.462l-.105-.113a1.458,1.458,0,1,1,2.142-1.98l.093.1a1.458,1.458,0,0,1-1.064,2.455ZM22.05,69.406a1.458,1.458,0,0,1-1.259-.721A35,35,0,0,1,51,16c.845,0,1.7.03,2.538.091A1.458,1.458,0,1,1,53.329,19c-.77-.055-1.554-.083-2.329-.083A32.092,32.092,0,0,0,23.306,67.209a1.459,1.459,0,0,1-1.256,2.2ZM60.731,20.35a1.454,1.454,0,0,1-.423-.063l-.134-.04a1.458,1.458,0,1,1,.833-2.8l.146.044a1.458,1.458,0,0,1-.422,2.854Z" transform="translate(-16 -16)" fill="#fff"/>
      </g>
      <g id="Group_6" data-name="Group 6" transform="translate(10.792 11.035)">
        <path id="Path_8" data-name="Path 8" d="M131.319,139.3H96.806A6.813,6.813,0,0,1,90,132.5v-30a1.458,1.458,0,1,1,2.917,0v30a3.893,3.893,0,0,0,3.889,3.889H131.32a1.456,1.456,0,0,1,1.143.553,1.456,1.456,0,0,1,.733-1.034l.091-.052a1.458,1.458,0,0,1,1.48,2.513q-.08.047-.162.092a1.459,1.459,0,0,1-1.848-.371A1.459,1.459,0,0,1,131.319,139.3Zm5.347-7.076a1.458,1.458,0,0,1-1.458-1.458v-32.3a3.893,3.893,0,0,0-3.889-3.889H99.1a1.458,1.458,0,1,1,0-2.917h32.215a6.813,6.813,0,0,1,6.806,6.806v32.3A1.458,1.458,0,0,1,136.667,132.229ZM92.421,96.866a1.459,1.459,0,0,1-1.194-2.295q.053-.076.108-.15a1.458,1.458,0,0,1,2.344,1.736l-.062.086A1.456,1.456,0,0,1,92.421,96.866Z" transform="translate(-90 -91.666)" fill="#fff"/>
      </g>
      <g id="Group_7" data-name="Group 7" transform="translate(27.708 22.458)">
        <path id="Path_9" data-name="Path 9" d="M207.457,193.333a1.459,1.459,0,0,1-1.225-2.247c4.422-6.873,12.84-19.961,13.108-20.389a1.458,1.458,0,0,1,2.494,1.512c-.146.244-10.1,15.718-13.149,20.455A1.457,1.457,0,0,1,207.457,193.333Z" transform="translate(-206 -169.999)" fill="#fff"/>
      </g>
      <g id="Group_8" data-name="Group 8" transform="translate(42.292 26.833)">
        <path id="Path_10" data-name="Path 10" d="M307.459,216.042a1.458,1.458,0,0,1-.81-2.672l7.27-4.847-6.034-6.034a1.458,1.458,0,0,1,2.063-2.063l7.292,7.292a1.458,1.458,0,0,1-.222,2.245l-8.75,5.833A1.453,1.453,0,0,1,307.459,216.042Z" transform="translate(-306 -200)" fill="#fff"/>
      </g>
      <g id="Group_9" data-name="Group 9" transform="translate(16.042 26.833)">
        <path id="Path_11" data-name="Path 11" d="M134.75,216.04a1.454,1.454,0,0,1-1.031-.427l-7.292-7.292a1.458,1.458,0,0,1,.222-2.245l8.75-5.833a1.458,1.458,0,1,1,1.618,2.427l-7.27,4.847,6.034,6.034a1.458,1.458,0,0,1-1.031,2.49Z" transform="translate(-126 -199.998)" fill="#fff"/>
      </g>
    </g>
    <rect id="Rectangle_2" data-name="Rectangle 2" width="2.917" height="2.917" transform="translate(17.5 16.625)" fill="#fff"/>
    <rect id="Rectangle_3" data-name="Rectangle 3" width="2.917" height="2.917" transform="translate(51.042 16.625)" fill="#fff"/>
    <rect id="Rectangle_4" data-name="Rectangle 4" width="2.917" height="2.917" transform="translate(51.042 50.167)" fill="#fff"/>
    <rect id="Rectangle_5" data-name="Rectangle 5" width="2.917" height="2.917" transform="translate(17.5 50.167)" fill="#fff"/>
  </g>
</svg>
